<svg xmlns="http://www.w3.org/2000/svg" viewBox="0 0 120 140" fill="none">
  <!-- branch -->
  <path d="M8 18 Q60 28 112 16" stroke="#8B7355" stroke-width="5" stroke-linecap="round" fill="none"/>
  <path d="M108 16 L118 13" stroke="#8B7355" stroke-width="4" stroke-linecap="round" fill="none"/>
  <!-- left arm wrapped over branch -->
  <path d="M42 48 Q34 34 42 22" stroke="#C4956A" stroke-width="10" stroke-linecap="round" fill="none"/>
  <path d="M42 48 Q34 34 42 22" stroke="#E8C99B" stroke-width="4" stroke-linecap="round" fill="none" opacity="0.35"/>
  <!-- right arm wrapped over branch -->
  <path d="M78 48 Q86 34 78 22" stroke="#C4956A" stroke-width="10" stroke-linecap="round" fill="none"/>
  <path d="M78 48 Q86 34 78 22" stroke="#E8C99B" stroke-width="4" stroke-linecap="round" fill="none" opacity="0.35"/>
  <!-- left claw on branch -->
  <path d="M42 22 L38 14 M42 22 L42 13 M42 22 L46 15" stroke="#E8C99B" stroke-width="2" stroke-linecap="round" fill="none"/>
  <!-- right claw on branch -->
  <path d="M78 22 L74 14 M78 22 L78 13 M78 22 L82 15" stroke="#E8C99B" stroke-width="2" stroke-linecap="round" fill="none"/>
  <!-- body -->
  <ellipse cx="60" cy="85" rx="32" ry="40" fill="#C4956A"/>
  <!-- belly stripe -->
  <ellipse cx="60" cy="90" rx="20" ry="24" fill="#E8C99B"/>
  <!-- left leg -->
  <ellipse cx="46" cy="122" rx="12" ry="7" fill="#C4956A"/>
  <!-- right leg -->
  <ellipse cx="74" cy="122" rx="12" ry="7" fill="#C4956A"/>
  <!-- left toes -->
  <circle cx="38" cy="122" r="2.5" fill="#A67850"/>
  <circle cx="44" cy="124" r="2.5" fill="#A67850"/>
  <circle cx="50" cy="124" r="2.5" fill="#A67850"/>
  <!-- right toes -->
  <circle cx="66" cy="124" r="2.5" fill="#A67850"/>
  <circle cx="72" cy="124" r="2.5" fill="#A67850"/>
  <circle cx="78" cy="122" r="2.5" fill="#A67850"/>
  <!-- head -->
  <circle cx="60" cy="48" r="24" fill="#C4956A"/>
  <!-- face mask -->
  <ellipse cx="60" cy="52" rx="16" ry="14" fill="#E8C99B"/>
  <!-- eyes -->
  <circle cx="52" cy="48" r="4" fill="#2c2c2c"/>
  <circle cx="68" cy="48" r="4" fill="#2c2c2c"/>
  <!-- eye highlights -->
  <circle cx="53.5" cy="46.5" r="1.5" fill="#ffffff"/>
  <circle cx="69.5" cy="46.5" r="1.5" fill="#ffffff"/>
  <!-- sleepy lids -->
  <path d="M48 46 Q52 43.5 56 46" stroke="#2c2c2c" stroke-width="1.2" fill="none" stroke-linecap="round"/>
  <path d="M64 46 Q68 43.5 72 46" stroke="#2c2c2c" stroke-width="1.2" fill="none" stroke-linecap="round"/>
  <!-- nose -->
  <ellipse cx="60" cy="54" rx="2.5" ry="2" fill="#A67850"/>
  <!-- smile -->
  <path d="M55 58 Q60 62 65 58" stroke="#A67850" stroke-width="1.2" fill="none" stroke-linecap="round"/>
</svg>